# xmcd
#
# Track frame offsets:
#	150
#	19075
#	38736
#	56655
#	70803
#	88996
#	104541
#	121885
#	138981
#	152570
#	167958
#	182779
#
# Disc length: 2666 seconds
# Revision: 0
# Processed by: cddbd v1.5.2PL0 Copyright (c) Steve Scherf et al.
# Submitted via: dBpowerAMP V12.0
#
DISCID=a30a680c
DTITLE=Kate Lush - Don't Wait Too Long
DYEAR=2008
DGENRE=Blues
TTITLE0=Still The One
TTITLE1=Learning To Fly
TTITLE2=Take Me With You When You Go
TTITLE3=Feel The Way I Do
TTITLE4=Isabelle
TTITLE5=New Day
TTITLE6=Trouble Minded Man
TTITLE7=Come On Home
TTITLE8=Hard Habit
TTITLE9=I Think This Is It
TTITLE10=Winding Road
TTITLE11=Priceless
EXTD=
EXTT0=
EXTT1=
EXTT2=
EXTT3=
EXTT4=
EXTT5=
EXTT6=
EXTT7=
EXTT8=
EXTT9=
EXTT10=
EXTT11=
PLAYORDER=
